<?xml version="1.0" encoding="UTF-8" standalone="no" ?>
<!DOCTYPE svg PUBLIC "-//W3C//DTD SVG 1.1//EN" "http://www.w3.org/Graphics/SVG/1.1/DTD/svg11.dtd">
<svg xmlns="http://www.w3.org/2000/svg" xmlns:xlink="http://www.w3.org/1999/xlink" version="1.1" width="500" height="500" viewBox="0 0 500 500" xml:space="preserve">
<desc>Created with Fabric.js 3.6.3</desc>
<defs>
</defs>
<g transform="matrix(5.158591450832705 0 0 5.158591450832704 252.5792957254163 252.57929572541636)"  >
<path style="stroke: none; stroke-width: 1; stroke-dasharray: none; stroke-linecap: butt; stroke-dashoffset: 0; stroke-linejoin: miter; stroke-miterlimit: 4; fill: rgb(104,138,172); fill-rule: nonzero; opacity: 1;"  transform=" translate(-49.999, -49.99999999999999)" d="M 93.146 53.175 c 2.949 -1.872 3.821 -6.621 4.664 -8.872 l 0.024 -0.169 l -0.17 0.017 c -4.612 0.469 -7.021 2.95 -8.284 4.802 c 0.308 -1.953 0.468 -3.929 0.468 -5.919 c 0 -0.024 -0.001 -0.047 -0.001 -0.071 l 0.02 0.027 c 0 0 2.312 -0.332 4.461 -2.856 c 2.264 -2.66 1.694 -7.454 1.835 -9.854 l -0.027 -0.169 l -0.157 0.067 c -4.351 1.846 -5.896 5.012 -6.531 7.159 c -0.242 -1.709 -0.596 -3.394 -1.051 -5.045 c 0.445 -0.238 2.202 -1.305 3.388 -3.925 c 1.438 -3.183 -0.437 -7.632 -0.966 -9.977 l -0.072 -0.155 l -0.133 0.107 c -3.421 2.776 -4.181 5.979 -4.282 8.215 c -0.536 -1.193 -1.13 -2.36 -1.782 -3.499 l 0.024 0.011 c 0 0 1.777 -1.425 2.328 -4.61 c 0.581 -3.356 -2.275 -7.098 -3.348 -9.182 l -0.106 -0.128 l -0.099 0.134 c -2.648 3.588 -2.477 6.911 -1.983 9.04 c -0.399 -0.513 -0.813 -1.018 -1.24 -1.514 c -0.071 -1.121 -0.642 -2.509 -1.95 -3.98 c -1.437 -1.618 -4.195 -3.92 -9.004 -3.632 l -0.166 0.01 l 0.051 0.159 c 1.163 2.035 2.745 6.469 5.876 7.809 c 1.76 0.753 3.229 0.81 4.141 0.731 c 0.478 0.559 0.938 1.13 1.381 1.712 c -0.042 -0.017 -0.081 -0.033 -0.122 -0.049 c -2.021 -0.772 -5.531 -1.543 -9.664 0.929 l -0.144 0.085 l 0.117 0.118 c 1.971 1.269 5.419 4.474 8.815 4.22 c 1.728 -0.129 2.98 -0.656 3.776 -1.119 c 0.786 1.371 1.484 2.787 2.095 4.239 c -0.113 -0.087 -0.231 -0.175 -0.353 -0.261 c -1.809 -1.286 -5.096 -2.953 -9.835 -1.561 l -0.164 0.048 l 0.087 0.147 c 1.63 1.767 4.231 5.834 7.668 6.454 c 1.856 0.335 3.302 0.088 4.204 -0.188 c 0.455 1.647 0.804 3.329 1.038 5.036 c -0.009 -0.011 -0.016 -0.021 -0.024 -0.032 c -1.382 -1.736 -4.079 -4.248 -9.02 -4.222 l -0.17 0.001 l 0.042 0.166 c 1.077 2.149 2.451 6.778 5.582 8.325 c 1.611 0.797 3.008 0.981 3.953 0.984 c 0 0.032 0.001 0.064 0.001 0.096 c 0 2.039 -0.171 4.064 -0.508 6.063 c -0.019 -0.049 -0.035 -0.098 -0.055 -0.148 c -0.807 -2.068 -2.642 -5.264 -7.368 -6.698 l -0.163 -0.05 l -0.009 0.17 c 0.395 2.372 0.339 7.2 2.873 9.604 c 1.321 1.253 2.618 1.841 3.521 2.118 c -0.572 1.825 -1.288 3.616 -2.138 5.365 c -0.003 -0.17 -0.009 -0.344 -0.021 -0.523 c -0.136 -2.215 -0.903 -5.818 -4.965 -8.631 l -0.142 -0.097 l -0.06 0.16 c -0.35 2.379 -1.88 6.958 -0.203 10.021 c 0.998 1.822 2.232 2.814 3.016 3.301 c -1.044 1.63 -2.214 3.212 -3.504 4.734 c 0.032 -0.146 0.062 -0.294 0.089 -0.446 c 0.407 -2.275 0.518 -6.111 -2.901 -9.956 l -0.118 -0.133 l -0.101 0.146 c -0.938 2.32 -3.614 6.578 -2.67 10.091 c 0.546 2.031 1.509 3.32 2.18 4.021 c -0.188 0.178 -0.374 0.356 -0.564 0.532 c -1.361 1.253 -2.711 2.37 -4.043 3.374 c 0.043 -0.107 0.087 -0.214 0.127 -0.326 c 0.845 -2.292 1.667 -6.265 -1.181 -10.897 l -0.099 -0.161 l -0.133 0.135 c -1.405 2.242 -4.976 6.18 -4.642 10.01 c 0.173 1.992 0.81 3.421 1.351 4.31 c -1.962 1.158 -3.866 2.094 -5.695 2.87 c 0.175 -0.195 0.351 -0.402 0.524 -0.626 c 1.399 -1.802 3.255 -5.104 2.031 -10.033 l -0.042 -0.17 l -0.155 0.082 c -1.886 1.598 -6.177 4.091 -6.964 7.595 c -0.509 2.264 -0.136 3.958 0.154 4.812 c -2.058 0.672 -3.977 1.184 -5.719 1.649 c -0.014 0.003 -0.028 0.007 -0.042 0.01 c -0.014 -0.003 -0.028 -0.007 -0.042 -0.01 c -1.743 -0.466 -3.662 -0.978 -5.719 -1.649 c 0.29 -0.854 0.662 -2.549 0.154 -4.812 c -0.787 -3.504 -5.079 -5.997 -6.964 -7.595 l -0.156 -0.082 l -0.042 0.17 c -1.224 4.929 0.631 8.231 2.032 10.033 c 0.173 0.224 0.349 0.431 0.524 0.626 c -1.83 -0.776 -3.734 -1.712 -5.696 -2.87 c 0.541 -0.889 1.177 -2.317 1.35 -4.31 c 0.334 -3.83 -3.236 -7.768 -4.642 -10.01 l -0.131 -0.135 l -0.098 0.161 c -2.848 4.633 -2.026 8.605 -1.183 10.897 c 0.042 0.112 0.085 0.219 0.128 0.325 c -1.332 -1.003 -2.681 -2.12 -4.042 -3.373 c -0.191 -0.176 -0.378 -0.354 -0.566 -0.532 c 0.671 -0.7 1.635 -1.989 2.18 -4.021 c 0.944 -3.513 -1.731 -7.771 -2.67 -10.091 l -0.101 -0.146 L 24.2 58.021 c -3.419 3.845 -3.31 7.681 -2.902 9.956 c 0.027 0.152 0.058 0.301 0.089 0.446 c -1.29 -1.522 -2.459 -3.104 -3.503 -4.734 c 0.783 -0.486 2.017 -1.479 3.015 -3.301 c 1.678 -3.063 0.148 -7.643 -0.203 -10.021 l -0.06 -0.16 l -0.14 0.097 c -4.062 2.812 -4.83 6.416 -4.966 8.631 c -0.011 0.18 -0.017 0.354 -0.02 0.523 c -0.85 -1.749 -1.566 -3.54 -2.139 -5.365 c 0.903 -0.277 2.2 -0.865 3.521 -2.118 c 2.535 -2.404 2.479 -7.232 2.873 -9.604 l -0.008 -0.17 l -0.164 0.05 c -4.728 1.435 -6.561 4.63 -7.368 6.698 c -0.02 0.05 -0.036 0.099 -0.055 0.148 c -0.336 -2 -0.508 -4.025 -0.508 -6.064 c 0 -0.032 0.001 -0.064 0.001 -0.096 c 0.944 -0.003 2.341 -0.187 3.953 -0.984 c 3.131 -1.547 4.504 -6.176 5.583 -8.325 l 0.042 -0.166 l -0.171 -0.001 c -4.94 -0.026 -7.636 2.486 -9.019 4.222 c -0.008 0.011 -0.016 0.022 -0.024 0.033 c 0.234 -1.707 0.582 -3.389 1.037 -5.037 c 0.903 0.276 2.348 0.523 4.205 0.188 c 3.438 -0.62 6.039 -4.688 7.669 -6.454 l 0.086 -0.147 l -0.164 -0.048 c -4.74 -1.393 -8.026 0.274 -9.835 1.561 c -0.122 0.086 -0.239 0.174 -0.353 0.261 c 0.61 -1.452 1.309 -2.868 2.095 -4.239 c 0.796 0.462 2.049 0.99 3.776 1.119 c 3.396 0.254 6.845 -2.951 8.815 -4.22 l 0.118 -0.118 l -0.143 -0.085 c -4.134 -2.473 -7.644 -1.702 -9.664 -0.929 c -0.042 0.016 -0.081 0.033 -0.123 0.049 c 0.443 -0.582 0.902 -1.153 1.38 -1.712 c 0.912 0.079 2.382 0.022 4.141 -0.731 c 3.131 -1.34 4.713 -5.774 5.876 -7.809 l 0.051 -0.159 l -0.167 -0.01 c -4.808 -0.288 -7.567 2.014 -9.004 3.632 c -1.308 1.471 -1.877 2.859 -1.949 3.98 c -0.427 0.496 -0.841 1.001 -1.241 1.514 c 0.495 -2.129 0.666 -5.452 -1.982 -9.04 l -0.099 -0.134 l -0.106 0.128 c -1.073 2.084 -3.929 5.826 -3.348 9.182 c 0.552 3.185 2.328 4.61 2.328 4.61 l 0.025 -0.011 c -0.653 1.138 -1.247 2.306 -1.782 3.499 c -0.101 -2.235 -0.861 -5.439 -4.282 -8.215 l -0.132 -0.107 L 9.182 18.39 c -0.53 2.345 -2.404 6.794 -0.965 9.977 c 1.186 2.62 2.942 3.688 3.388 3.925 c -0.456 1.651 -0.809 3.336 -1.051 5.045 c -0.636 -2.146 -2.182 -5.313 -6.533 -7.159 l -0.157 -0.067 L 3.837 30.28 c 0.14 2.4 -0.43 7.194 1.834 9.854 c 2.149 2.525 4.46 2.856 4.46 2.856 l 0.021 -0.027 c 0 0.024 -0.001 0.047 -0.001 0.071 c 0 1.99 0.16 3.965 0.467 5.918 c -1.262 -1.852 -3.672 -4.332 -8.284 -4.801 l -0.17 -0.017 l 0.024 0.169 c 0.843 2.251 1.715 7 4.664 8.872 c 2.686 1.705 4.912 1.438 5.088 1.413 c 0.495 1.571 1.092 3.118 1.785 4.636 c -1.802 -1.326 -4.772 -2.747 -9.082 -1.83 l -0.167 0.035 l 0.075 0.154 c 1.491 1.885 3.774 6.139 7.154 7.019 c 2.412 0.628 4.188 0.188 4.921 -0.068 c 0.935 1.458 1.964 2.878 3.089 4.253 c -2.141 -0.933 -5.566 -1.733 -9.813 0.307 l -0.161 0.078 l 0.114 0.137 c 1.973 1.541 5.33 5.284 8.967 5.344 c 2.779 0.045 4.516 -0.969 5.089 -1.365 c 0.179 0.168 0.355 0.337 0.537 0.505 c 1.251 1.151 2.491 2.191 3.718 3.137 c -2.385 -0.622 -6.229 -0.959 -10.432 2.064 l -0.152 0.109 l 0.144 0.121 c 2.337 1.239 6.522 4.516 10.318 3.907 c 3.604 -0.581 5.237 -2.564 5.237 -2.564 l -0.046 -0.112 c -0.014 -0.035 -0.031 -0.068 -0.046 -0.104 c 1.618 0.964 3.197 1.777 4.729 2.477 c -2.281 0.229 -5.458 1.187 -8.103 4.743 l -0.104 0.142 l 0.162 0.067 c 2.432 0.441 7.083 2.173 10.29 0.556 c 2.121 -1.07 3.194 -2.475 3.652 -3.229 c 1.15 0.374 2.259 0.7 3.317 0.996 c -3.044 0.89 -5.489 1.872 -7.147 3.748 l 1.132 1.001 c 1.79 -2.025 4.92 -2.915 8.881 -3.974 c 3.961 1.059 7.091 1.948 8.881 3.974 l 1.133 -1.001 c -1.658 -1.876 -4.104 -2.858 -7.147 -3.748 c 1.059 -0.296 2.168 -0.622 3.318 -0.996 c 0.456 0.754 1.531 2.158 3.651 3.229 c 3.206 1.617 7.858 -0.114 10.289 -0.556 l 0.162 -0.067 l -0.104 -0.142 c -2.646 -3.557 -5.822 -4.515 -8.104 -4.743 c 1.531 -0.699 3.111 -1.513 4.728 -2.476 c -0.015 0.034 -0.032 0.067 -0.046 0.103 l -0.045 0.112 c 0 0 1.633 1.983 5.236 2.564 c 3.796 0.608 7.981 -2.668 10.318 -3.907 l 0.145 -0.121 l -0.153 -0.109 c -4.201 -3.023 -8.046 -2.687 -10.431 -2.064 c 1.226 -0.945 2.467 -1.985 3.718 -3.137 c 0.181 -0.168 0.357 -0.337 0.536 -0.505 c 0.573 0.396 2.311 1.41 5.089 1.365 c 3.637 -0.06 6.994 -3.803 8.967 -5.344 l 0.114 -0.137 l -0.16 -0.078 c -4.248 -2.041 -7.673 -1.239 -9.814 -0.307 c 1.126 -1.375 2.155 -2.795 3.09 -4.253 c 0.734 0.257 2.509 0.696 4.921 0.068 c 3.381 -0.88 5.663 -5.134 7.155 -7.019 l 0.074 -0.154 l -0.167 -0.035 c -4.31 -0.917 -7.279 0.504 -9.081 1.83 c 0.692 -1.518 1.289 -3.064 1.784 -4.636 C 88.235 54.612 90.462 54.879 93.146 53.175 z M 23.856 61.577 c -0.297 4.328 -0.406 7.138 -0.648 8.873 c -0.033 -0.034 -0.067 -0.069 -0.099 -0.104 C 23.042 68.83 22.953 64.545 23.856 61.577 z M 19.368 53.545 c -1.281 4.041 -2.024 6.661 -2.649 8.216 c -0.019 -0.033 -0.039 -0.066 -0.057 -0.099 C 16.918 60.335 17.812 56.176 19.368 53.545 z M 17.529 44.991 c -2.291 3.223 -3.758 5.411 -4.814 6.737 c -0.016 -0.065 -0.032 -0.131 -0.047 -0.195 C 13.486 50.084 15.44 46.846 17.529 44.991 z M 18.289 35.47 c -3.104 2.374 -5.139 4.019 -6.539 4.979 c 0.005 -0.071 0.008 -0.143 0.013 -0.213 C 13 39.071 15.781 36.608 18.289 35.47 z M 21.631 27.377 c -3.798 1.483 -6.259 2.527 -7.868 3.042 c 0.018 -0.052 0.037 -0.102 0.054 -0.153 C 15.194 29.547 18.762 27.798 21.631 27.377 z M 26.003 20.802 c -3.785 0.453 -6.311 0.825 -7.961 0.936 c 0.038 -0.057 0.075 -0.114 0.113 -0.171 C 19.766 21.204 23.33 20.513 26.003 20.802 z M 28.013 11.004 c -3.152 2.148 -5.222 3.644 -6.636 4.503 l -0.104 -0.098 C 22.463 14.396 25.419 12.014 28.013 11.004 z M 16.67 12.628 c 0.653 3.148 0.034 7.696 -0.1 8.597 c -0.01 0.016 -0.021 0.032 -0.032 0.049 C 16.423 19.666 16.573 16.963 16.67 12.628 z M 10.265 21.659 c 1.334 2.71 1.912 6.86 2.075 8.252 c -0.019 0.053 -0.035 0.106 -0.053 0.16 C 11.78 28.475 11.238 25.801 10.265 21.659 z M 5.782 33.122 c 2.3 2.527 4.178 7.093 4.431 7.723 c -0.001 0.009 -0.001 0.02 -0.002 0.029 C 9.268 39.524 7.984 37.046 5.782 33.122 z M 4.888 46.442 c 2.808 1.656 5.797 5.196 6.438 5.976 c 0.006 0.023 0.012 0.047 0.018 0.07 C 10.043 51.462 8.097 49.49 4.888 46.442 z M 7.776 58.794 c 2.749 0.62 6.058 2.54 7.453 3.401 c 0.04 0.071 0.078 0.142 0.117 0.213 C 13.781 61.769 11.417 60.547 7.776 58.794 z M 13.418 69.741 c 3.105 -0.052 7.207 1.215 8.642 1.695 c 0.042 0.044 0.085 0.087 0.127 0.13 C 20.456 71.329 17.709 70.656 13.418 69.741 z M 21.513 79.018 c 3.97 -0.774 9.885 0.26 9.885 0.26 C 29.598 79.402 26.518 79.19 21.513 79.018 z M 38.562 74.599 c 1.829 4.152 3.06 6.718 3.603 8.334 c -0.017 -0.007 -0.034 -0.013 -0.052 -0.02 C 41.593 82.042 39.19 77.902 38.562 74.599 z M 30.87 68.593 c 0.467 4.354 0.858 7.236 0.953 9.099 c -0.058 -0.039 -0.116 -0.076 -0.174 -0.115 C 31.269 75.811 30.499 71.672 30.87 68.593 z M 33.185 86.523 c 2.435 -1.331 6.076 -2.091 7.84 -2.4 c 0.092 0.036 0.187 0.072 0.279 0.106 C 39.65 84.786 37.044 85.441 33.185 86.523 z M 78.487 79.018 c -5.006 0.173 -8.086 0.385 -9.886 0.26 C 68.602 79.277 74.517 78.243 78.487 79.018 z M 69.13 68.593 c 0.371 3.079 -0.398 7.218 -0.778 8.983 c -0.059 0.039 -0.117 0.076 -0.174 0.115 C 68.272 75.829 68.663 72.946 69.13 68.593 z M 61.438 74.599 c -0.628 3.304 -3.03 7.443 -3.551 8.314 c -0.018 0.007 -0.035 0.013 -0.052 0.02 C 58.378 81.316 59.608 78.751 61.438 74.599 z M 66.814 86.523 c -3.858 -1.082 -6.465 -1.737 -8.118 -2.294 c 0.092 -0.034 0.187 -0.07 0.278 -0.106 C 60.738 84.433 64.38 85.192 66.814 86.523 z M 95.112 46.442 c -3.209 3.048 -5.155 5.02 -6.455 6.046 c 0.005 -0.023 0.011 -0.047 0.018 -0.07 C 89.314 51.64 92.304 48.098 95.112 46.442 z M 94.218 33.122 c -2.202 3.925 -3.485 6.403 -4.429 7.752 c 0 -0.01 -0.001 -0.02 -0.001 -0.029 C 90.04 40.215 91.919 35.649 94.218 33.122 z M 89.736 21.659 c -0.975 4.142 -1.517 6.816 -2.022 8.412 c -0.019 -0.053 -0.035 -0.107 -0.054 -0.16 C 87.823 28.517 88.4 24.369 89.736 21.659 z M 83.33 12.628 c 0.098 4.335 0.247 7.038 0.132 8.646 c -0.011 -0.017 -0.021 -0.033 -0.032 -0.049 C 83.295 20.322 82.678 15.776 83.33 12.628 z M 71.986 11.004 c 2.594 1.01 5.55 3.393 6.74 4.405 l -0.104 0.099 C 77.209 14.647 75.139 13.152 71.986 11.004 z M 73.997 20.802 c 2.674 -0.289 6.236 0.402 7.849 0.765 c 0.038 0.057 0.074 0.115 0.112 0.171 C 80.308 21.627 77.782 21.255 73.997 20.802 z M 78.368 27.377 c 2.87 0.421 6.437 2.169 7.813 2.889 c 0.019 0.051 0.037 0.101 0.055 0.153 C 84.628 29.904 82.167 28.861 78.368 27.377 z M 81.712 35.47 c 2.507 1.138 5.288 3.601 6.524 4.765 c 0.006 0.071 0.009 0.143 0.013 0.214 C 86.851 39.489 84.815 37.843 81.712 35.47 z M 82.472 44.991 c 2.088 1.854 4.042 5.093 4.859 6.541 c -0.016 0.065 -0.031 0.131 -0.046 0.196 C 86.229 50.402 84.762 48.214 82.472 44.991 z M 80.633 53.545 c 1.555 2.631 2.449 6.789 2.706 8.117 c -0.019 0.032 -0.038 0.064 -0.058 0.099 C 82.656 60.205 81.913 57.586 80.633 53.545 z M 76.891 70.348 c -0.032 0.034 -0.066 0.068 -0.1 0.103 c -0.24 -1.735 -0.351 -4.544 -0.647 -8.873 C 77.047 64.545 76.957 68.83 76.891 70.348 z M 86.582 69.741 c -4.292 0.915 -7.037 1.588 -8.769 1.825 c 0.042 -0.043 0.085 -0.087 0.127 -0.13 C 79.377 70.956 83.477 69.689 86.582 69.741 z M 92.224 58.794 c -3.641 1.753 -6.005 2.975 -7.569 3.614 c 0.039 -0.071 0.077 -0.142 0.117 -0.213 C 86.166 61.334 89.475 59.414 92.224 58.794 z" stroke-linecap="round" />
</g>
<g transform="matrix(0.21657512169833854 0 0 0.21657512169833854 251.37268980373148 228.89146573492422)"  >
<g style=""   >
		<g transform="matrix(1 0 0 1 0 -2.2737368e-13)"  >
<path style="stroke: none; stroke-width: 1; stroke-dasharray: none; stroke-linecap: butt; stroke-dashoffset: 0; stroke-linejoin: miter; stroke-miterlimit: 4; fill: rgb(104,138,172); fill-rule: nonzero; opacity: 0.5;"  transform=" translate(-466.15, -553.9999999999998)" d="M 466.3 0 h 4.1 L 488 8.8 c 11.7 5.9 19.4 9.7 23.2 11.6 c 3.8 1.8 16.6 7.8 38.4 17.8 c 21.8 10 33.1 15.1 33.9 15.2 c 0.7 0.1 6.5 2.5 17.4 7.2 S 620.1 68.7 626 71 c 5.9 2.2 14.3 5.3 25.4 9.1 c 11.1 3.9 18.1 6.3 21 7.3 s 6.6 2.2 11 3.7 c 4.4 1.4 10 3.1 16.9 5.2 c 6.9 2 15.7 4.5 26.3 7.3 c 10.7 2.8 21 5.4 31 7.6 s 16.5 3.7 19.4 4.3 c 2.9 0.6 12.2 2.3 27.9 5.2 c 15.7 2.8 25.5 4.6 29.5 5.2 s 13.7 2.1 29.2 4.6 c 15.5 2.4 23.3 3.7 23.5 3.7 s 7.7 1.4 22.6 4.3 c 14.8 2.8 22.3 4.3 22.4 4.4 l 0.2 0.2 l -0.9 45.4 c -0.6 30.2 -2.2 69.3 -4.7 117.2 s -4.5 81.4 -6 100.5 s -3.1 35.4 -5 49 s -4.1 26.5 -6.6 38.7 s -5.2 24.5 -8.2 36.8 c -2.9 12.4 -5.5 23.2 -7.8 32.6 c -2.3 9.3 -5 19.4 -8.2 30.1 c -3.1 10.8 -5 17.3 -5.6 19.5 s -1.6 5.1 -2.8 8.5 c -1.3 3.5 -2.7 7.7 -4.4 12.8 c -1.7 5.1 -4.3 12.4 -7.8 21.9 c -3.6 9.5 -6.5 17.2 -8.8 22.8 c -2.3 5.7 -5.1 12.5 -8.5 20.4 c -3.3 7.9 -7.6 17.5 -12.9 28.6 c -5.2 11.2 -8.4 17.7 -9.4 19.5 s -4.9 8.5 -11.4 19.9 c -6.6 11.5 -10.6 18.3 -11.9 20.4 c -1.4 2.1 -4.6 7.5 -9.7 16.1 c -5.1 8.6 -8.5 14.1 -10 16.4 c -1.6 2.3 -4 6 -7.2 11 s -5.9 8.8 -7.8 11.6 c -2 2.7 -4.3 6 -6.9 9.7 c -2.6 3.8 -5.1 7.2 -7.5 10.4 s -4.3 5.8 -5.6 7.9 c -1.4 2.1 -3.3 4.9 -6 8.2 c -2.6 3.3 -5.1 6.7 -7.5 10 s -5 6.8 -7.8 10.4 c -2.8 3.6 -5.2 6.6 -7.2 9.1 s -6.2 7.4 -12.7 14.5 s -14.1 15.2 -22.9 24.4 c -8.8 9.1 -16.5 17 -23.2 23.4 c -6.7 6.5 -11.1 10.6 -13.3 12.3 s -7.3 6.1 -15.4 13.1 c -8 7 -13 11.3 -14.7 12.8 c -1.8 1.5 -6.2 5.3 -13.2 11.3 s -11.6 9.8 -13.8 11.6 c -2.2 1.7 -4.7 3.8 -7.5 6.1 c -2.8 2.3 -6.7 5.5 -11.8 9.6 c -5 4.1 -8.8 7.1 -11.4 9 s -5.1 3.7 -7.5 5.2 s -6.8 4.2 -13.2 7.9 c -6.4 3.8 -10.6 6.3 -12.5 7.6 c -2 1.3 -4.2 2.7 -6.7 4.1 s -5.1 3 -7.8 4.9 c -2.7 1.8 -4.7 3.1 -6 4 c -1.3 0.8 -4 2.2 -8.2 4.3 c -4.2 2 -9.2 4.4 -15.1 7 c -5.9 2.6 -9.9 4.4 -12.2 5.2 l -3.4 1.2 l -3.8 -0.9 c -2.5 -0.6 -5.2 -1.6 -8.2 -3 s -7.8 -3.9 -14.7 -7.3 c -6.9 -3.5 -10.9 -5.6 -11.9 -6.4 s -3.7 -2.6 -8 -5.3 c -4.3 -2.7 -7.5 -4.8 -9.7 -6.1 c -2.2 -1.3 -6.5 -3.9 -12.9 -7.6 c -6.4 -3.8 -10.8 -6.4 -13.2 -7.9 s -4.9 -3.2 -7.5 -5.2 c -2.6 -1.9 -5.6 -4.2 -8.9 -6.9 c -3.3 -2.6 -7.8 -6.2 -13.3 -10.8 c -5.5 -4.6 -10.3 -8.5 -14.4 -11.9 c -4.1 -3.3 -10 -8.4 -17.9 -15.2 c -7.8 -6.8 -12.9 -11.1 -15.1 -12.8 s -7 -5.8 -14.4 -12.2 c -7.4 -6.4 -11.6 -10 -12.4 -10.8 s -4.5 -4.4 -11.1 -10.8 c -6.6 -6.4 -11.2 -11 -13.8 -13.7 c -2.6 -2.7 -8.4 -8.8 -17.2 -18.3 c -8.9 -9.4 -14.2 -15.2 -16 -17.4 c -1.8 -2.1 -4.4 -5.3 -7.8 -9.4 c -3.4 -4.2 -6.2 -7.5 -8.2 -10 s -4 -5.2 -6 -7.9 s -4.1 -5.6 -6.3 -8.5 c -2.2 -2.9 -4.2 -5.6 -6 -7.9 c -1.8 -2.3 -3.3 -4.4 -4.5 -6.2 c -1.3 -1.8 -3 -4.2 -5.2 -7.2 c -2.2 -2.9 -4.1 -5.6 -5.6 -7.9 c -1.6 -2.3 -3.7 -5.4 -6.3 -9.1 c -2.6 -3.8 -4.6 -6.7 -6 -8.8 s -3.6 -5.5 -6.6 -10 c -3 -4.6 -5 -7.7 -6 -9.4 c -0.9 -1.7 -3.6 -6.1 -7.8 -13.1 c -4.3 -7 -7.1 -11.6 -8.5 -13.7 c -1.4 -2.1 -4.8 -8 -10.2 -17.5 c -5.4 -9.5 -9.5 -16.7 -12.2 -21.6 c -2.7 -4.9 -5.1 -9.4 -7.2 -13.7 s -5 -10.7 -8.8 -19.2 s -5.6 -12.9 -5.6 -13.1 c 0 -0.2 -1.9 -4.9 -5.6 -14 c -3.8 -9.1 -6.7 -16.3 -8.8 -21.6 s -5 -13.3 -8.8 -24.1 s -7.5 -22.2 -11.3 -34.4 s -7.9 -27 -12.5 -44.5 s -7.8 -30.4 -9.7 -39 c -1.9 -8.5 -4.5 -20.9 -7.8 -37.1 s -5.3 -26.9 -6 -32 c -0.6 -5.1 -2 -20.6 -4.1 -46.6 s -3.4 -45.6 -4.1 -58.8 c -0.6 -13.2 -1.4 -27.2 -2.2 -42 s -2 -39.1 -3.4 -72.8 C 0.7 202.7 0 178.9 0 164.8 v -21 l 2 -1.1 c 1.4 -0.7 5.1 -1.6 11.1 -2.6 c 6.1 -1 14.4 -2.3 25.1 -4 c 10.7 -1.6 26.9 -4.3 48.6 -7.9 c 21.7 -3.7 37.3 -6.3 46.7 -7.9 c 9.4 -1.6 21.8 -4.2 37.3 -7.6 c 15.5 -3.5 28.9 -6.7 40.1 -9.7 c 11.3 -3 21 -5.9 29.2 -8.5 s 14.5 -4.7 19.1 -6.1 c 4.6 -1.4 9 -2.8 13.2 -4.3 c 4.2 -1.4 12.5 -4.5 25.1 -9.1 c 12.5 -4.7 24.3 -9.4 35.3 -14.2 s 16.8 -7.2 17.6 -7.3 c 0.7 -0.1 6 -2.4 15.8 -6.9 s 18.7 -8.5 26.7 -12.2 c 7.9 -3.7 15.8 -7.3 23.5 -11 s 17.4 -8.4 28.9 -14.3 L 462.2 0 H 466.3 L 466.3 0 L 466.3 0 z" stroke-linecap="round" />
</g>
		<g transform="matrix(1 0 0 1 1.6000000000001364 2.949999999999818)"  >
<path style="stroke: none; stroke-width: 1; stroke-dasharray: none; stroke-linecap: butt; stroke-dashoffset: 0; stroke-linejoin: miter; stroke-miterlimit: 4; fill: rgb(104,138,172); fill-rule: nonzero; opacity: 0.81;"  transform=" translate(-467.7500000000001, -556.9499999999998)" d="M 468 71.8 h 3.6 l 15.4 7.7 c 10.3 5.2 17 8.5 20.3 10.1 s 14.5 6.8 33.7 15.6 c 19.1 8.8 29 13.3 29.7 13.3 c 0.6 0.1 5.7 2.2 15.3 6.3 c 9.5 4.1 16.9 7.1 22 9.1 s 12.5 4.6 22.3 8 c 9.7 3.4 15.8 5.5 18.4 6.4 c 2.6 0.9 5.8 2 9.6 3.2 s 8.8 2.8 14.8 4.5 c 6 1.8 13.7 3.9 23.1 6.4 c 9.3 2.5 18.4 4.7 27.2 6.7 s 14.5 3.2 17 3.7 c 2.6 0.5 10.7 2 24.5 4.5 c 13.7 2.5 22.4 4 25.8 4.5 c 3.5 0.5 12 1.9 25.6 4 s 20.4 3.2 20.6 3.2 s 6.8 1.2 19.8 3.7 c 13 2.5 19.6 3.8 19.6 3.9 l 0.1 0.1 l -0.8 39.8 c -0.5 26.5 -1.9 60.7 -4.1 102.7 s -3.9 71.3 -5.2 88 c -1.3 16.7 -2.7 31 -4.4 43 c -1.6 11.9 -3.6 23.2 -5.8 33.9 c -2.2 10.7 -4.6 21.4 -7.1 32.3 c -2.6 10.9 -4.9 20.4 -6.9 28.5 c -2 8.2 -4.4 17 -7.1 26.4 c -2.7 9.4 -4.4 15.1 -4.9 17.1 s -1.4 4.4 -2.5 7.5 c -1.1 3 -2.4 6.8 -3.8 11.2 c -1.5 4.4 -3.8 10.9 -6.9 19.2 c -3.1 8.4 -5.7 15 -7.7 20 s -4.5 10.9 -7.4 17.9 c -2.9 6.9 -6.7 15.3 -11.3 25.1 s -7.3 15.5 -8.2 17.1 s -4.3 7.4 -10 17.5 c -5.8 10 -9.3 16 -10.4 17.9 c -1.2 1.9 -4 6.6 -8.5 14.1 c -4.5 7.6 -7.4 12.4 -8.8 14.4 c -1.4 2 -3.5 5.2 -6.3 9.6 c -2.8 4.4 -5.1 7.7 -6.9 10.1 c -1.7 2.4 -3.8 5.2 -6 8.5 c -2.3 3.3 -4.5 6.3 -6.6 9.1 s -3.8 5.1 -4.9 6.9 c -1.2 1.9 -2.9 4.3 -5.2 7.2 s -4.5 5.9 -6.6 8.8 c -2.1 2.9 -4.4 6 -6.9 9.1 s -4.6 5.8 -6.3 8 s -5.5 6.4 -11.1 12.7 c -5.7 6.2 -12.4 13.3 -20.1 21.3 c -7.7 8 -14.5 14.9 -20.3 20.5 c -5.9 5.7 -9.8 9.3 -11.7 10.8 s -6.4 5.3 -13.5 11.5 c -7.1 6.1 -11.4 9.9 -12.9 11.2 c -1.6 1.3 -5.4 4.6 -11.5 9.9 c -6.1 5.2 -10.2 8.6 -12.1 10.1 c -1.9 1.5 -4.1 3.3 -6.6 5.3 s -5.9 4.8 -10.3 8.4 c -4.4 3.6 -7.7 6.2 -10 7.9 s -4.5 3.2 -6.6 4.5 s -6 3.6 -11.5 6.9 c -5.6 3.3 -9.3 5.5 -11 6.7 s -3.7 2.4 -5.9 3.6 c -2.2 1.2 -4.5 2.7 -6.9 4.3 s -4.1 2.8 -5.2 3.5 c -1.1 0.7 -3.5 2 -7.1 3.7 c -3.7 1.8 -8.1 3.8 -13.2 6.1 c -5.1 2.3 -8.7 3.8 -10.7 4.5 l -3 1.1 l -3.3 -0.8 c -2.2 -0.5 -4.5 -1.4 -7.1 -2.6 c -226.2 -108.8 -368.2 -364 -387.8 -608 c -1.8 -22.8 -3 -39.9 -3.6 -51.5 c -0.5 -11.6 -1.2 -23.8 -1.9 -36.8 s -1.7 -34.2 -3 -63.8 c -1.3 -29.5 -1.9 -50.4 -1.9 -62.7 v -18.4 l 1.8 -0.9 c 1.2 -0.6 4.4 -1.4 9.8 -2.3 c 5.3 -0.9 12.6 -2 22 -3.5 c 9.3 -1.4 23.5 -3.7 42.6 -6.9 s 32.7 -5.5 40.9 -6.9 c 8.2 -1.4 19.1 -3.6 32.7 -6.7 c 13.6 -3 25.3 -5.9 35.2 -8.5 c 9.9 -2.7 18.4 -5.2 25.6 -7.5 c 7.1 -2.3 12.7 -4.1 16.8 -5.3 c 4 -1.2 7.9 -2.5 11.5 -3.7 c 3.7 -1.2 11 -3.9 22 -8 s 21.3 -8.2 30.9 -12.4 c 9.6 -4.2 14.7 -6.3 15.4 -6.4 c 0.6 -0.1 5.3 -2.1 13.9 -6 c 8.6 -3.9 16.4 -7.5 23.4 -10.7 s 13.8 -6.4 20.6 -9.6 s 15.2 -7.4 25.3 -12.5 l 15.1 -7.7 C 464.4 71.8 468 71.8 468 71.8 z" stroke-linecap="round" />
</g>
</g>
</g>
<g transform="matrix(1.223369566854544 0 0 1.2233695668545437 251.37268980373153 212.41918809014524)"  >
<path style="stroke: none; stroke-width: 0; stroke-dasharray: none; stroke-linecap: butt; stroke-dashoffset: 0; stroke-linejoin: miter; stroke-miterlimit: 4; fill: rgb(44,62,80); fill-rule: nonzero; opacity: 1;"  transform=" translate(-50.000198499999996, -50.00006250000002)" d="m 7.1797 67.426 c 0 -0.55078 0.44922 -1 1 -1 c 0.30078 0 0.57422 0.13281 0.75781 0.34766 l 3.418 3.418 c 1.0234 -1 2.0273 -1.9883 3.0039 -2.9688 l 0.054687 -0.058594 c 1.2969 -1.2969 2.4883 -2.5 3.543 -3.5898 c 0.18359 -0.21875 0.46094 -0.35938 0.76562 -0.35938 c 0.55078 0 1 0.44922 1 1 v 29.785 c 0 0.55078 -0.44922 1 -1 1 h -11.547 c -0.55078 0 -1 -0.44922 -1 -1 v -26.574 z m 74.098 25.57 h 9.543 v -51.348 l -3.9492 -3.8945 c -0.99609 -0.99609 -1.9922 -2.0078 -2.9844 -3.0234 c -0.43359 0.37891 -0.84375 0.75781 -1.2383 1.1328 c -0.50391 0.48047 -0.96094 0.94531 -1.3711 1.3906 z m 10.52 2 h -11.52 c -0.55078 0 -1 -0.44922 -1 -1 v -57.121 c 0 -0.29297 0.125 -0.55469 0.32422 -0.73828 c 0.51563 -0.57422 1.0742 -1.1484 1.668 -1.7188 c 0.60156 -0.57422 1.2656 -1.1641 1.9883 -1.7734 c 0.39453 -0.38281 1.0273 -0.375 1.4102 0.019531 c 1.0117 1.043 2.2148 2.2656 3.6211 3.6719 c 1.4258 1.4258 2.8164 2.7969 4.1836 4.1328 c 0.21484 0.18359 0.35156 0.45703 0.35156 0.75781 v 52.766 c 0 0.55078 -0.44922 1 -1 1 h -0.027344 z m -39.488 -2 h 9.543 v -36.254 c -2.0117 1.9258 -3.7695 3.625 -5.2773 5.1016 c -1.7578 1.7227 -3.1836 3.1562 -4.2695 4.293 v 26.863 z m 10.52 2 h -11.52 c -0.55078 0 -1 -0.44922 -1 -1 v -28.262 c 0 -0.29297 0.12891 -0.55859 0.32812 -0.74219 c 1.1211 -1.1797 2.6367 -2.707 4.543 -4.5781 c 1.9258 -1.8867 4.2383 -4.1172 6.9336 -6.6797 l 0.015625 -0.019531 c 0.18359 -0.19141 0.4375 -0.3125 0.72266 -0.3125 c 0.55078 0 1 0.44922 1 1 v 39.586 c 0 0.55078 -0.44922 1 -1 1 h -0.027343 z m -28.75 0 h -11.52 c -0.55078 0 -1 -0.44922 -1 -1 v -33.051 c 0 -0.11328 0.019531 -0.22266 0.054687 -0.32031 v -0.003906 l 0.023438 -0.066406 l 0.023437 -0.058594 l 0.019532 -0.042969 l 0.003906 -0.003906 l 0.023437 -0.039063 l 0.003907 -0.003906 l 0.011718 -0.019531 l 0.003906 -0.003907 l 0.011719 -0.015624 l 0.003907 -0.003907 l 0.011718 -0.015625 l 0.003906 -0.003906 l 0.027344 -0.03125 l 0.003906 -0.007812 l 0.019532 -0.019532 l 0.007812 -0.011718 l 0.007813 -0.007813 l 0.007812 -0.011719 l 0.0625 -0.058594 l 0.007813 -0.007812 l 0.039062 -0.03125 c 1.2031 -1.0586 2.4727 -2.2344 3.8086 -3.5273 c 1.3867 -1.3398 2.8555 -2.8125 4.3945 -4.4102 l 0.0625 -0.058594 l 0.011719 -0.011718 l 0.007812 -0.003907 c 0.042969 -0.039062 0.09375 -0.070312 0.14063 -0.097656 l 0.039062 -0.019531 h 0.003906 l 0.039063 -0.019532 h 0.003906 l 0.019531 -0.007812 h 0.003906 l 0.019532 -0.007812 h 0.003906 l 0.089844 -0.03125 l 0.019531 -0.007813 h 0.003906 l 0.019531 -0.007813 h 0.003907 c 0.085937 -0.019531 0.17188 -0.027343 0.26172 -0.027343 h 0.023437 l 0.042969 0.003906 h 0.003906 l 0.11719 0.019531 l 0.019531 0.003906 l 0.003906 0.003907 l 0.019531 0.003906 l 0.003906 0.003906 l 0.042969 0.011719 l 0.003907 0.003906 c 0.12109 0.039063 0.23437 0.10156 0.33203 0.1875 l 0.003906 0.003906 l 0.019531 0.015626 l 0.003906 0.003906 c 0.57813 0.46484 1.1328 0.96484 1.6562 1.4883 c 0.52734 0.53516 1.0664 1.125 1.6094 1.7734 c 0.18359 0.18359 0.29687 0.43359 0.29687 0.71484 v 37.844 c 0 0.55078 -0.44922 1 -1 1 h -0.027343 z m -10.52 -2 h 9.543 v -36.484 c -0.43359 -0.50781 -0.875 -0.98438 -1.3203 -1.4297 c -0.29297 -0.28906 -0.57812 -0.55859 -0.85547 -0.80859 c -1.3398 1.375 -2.6016 2.6367 -3.7891 3.7852 c -1.2812 1.2383 -2.4766 2.3516 -3.582 3.3359 v 31.602 z m 43.125 0 h 9.543 v -50.586 l -4.9766 4.8711 l -4.5664 4.4961 z m 10.52 2 h -11.52 c -0.55078 0 -1 -0.44922 -1 -1 v -42.695 l 0.003906 -0.046875 l 0.007812 -0.046875 v -0.003906 l 0.007813 -0.042969 v -0.003906 l 0.007813 -0.019531 v -0.003907 l 0.003906 -0.019531 v -0.007812 l 0.011718 -0.042969 v -0.007812 l 0.019532 -0.039063 l 0.007812 -0.023437 l 0.082032 -0.16406 l 0.003906 -0.003906 l 0.007812 -0.015625 l 0.003906 -0.003906 l 0.011719 -0.015626 l 0.003907 -0.003906 l 0.011718 -0.015625 v -0.003906 l 0.011719 -0.019531 l 0.015625 -0.019532 v -0.003906 l 0.03125 -0.039062 l 0.039062 -0.039063 l 0.011719 -0.015625 l 0.015625 -0.015625 l 0.019532 -0.015625 l 11.461 -11.238 l 0.015625 -0.019531 c 0.18359 -0.19922 0.44922 -0.32812 0.74219 -0.32812 c 0.55078 0 1 0.44922 1 1 v 53.961 c 0 0.55078 -0.44922 1 -1 1 h -0.027344 z m -39.27 -2 h 9.543 v -22.234 c -1.8516 -1.6172 -3.6875 -3.3008 -5.5078 -5.0547 c -1.3594 -1.3047 -2.7031 -2.6445 -4.0352 -4.0156 z m 10.52 2 h -11.52 c -0.55078 0 -1 -0.44922 -1 -1 v -34.793 c 0 -0.55078 0.44922 -1 1 -1 c 0.30078 0 0.57422 0.13281 0.75781 0.34766 l 0.015625 0.019531 c 1.8789 1.9883 3.7617 3.8906 5.6484 5.7031 c 1.8906 1.8164 3.793 3.5586 5.7031 5.2227 l 0.019531 0.015625 c 0.24609 0.18359 0.40234 0.47266 0.40234 0.80078 v 23.688 c 0 0.55078 -0.44922 1 -1 1 h -0.027344 z m -29.727 -2 v -26.332 c -0.64844 0.66016 -1.2773 1.2969 -1.8945 1.9102 l -0.058593 0.054687 c -1.2148 1.2148 -2.4609 2.4375 -3.7227 3.668 l -0.066406 0.066406 l -0.011719 0.007813 l -0.007812 0.007812 l -0.011719 0.007813 l -0.007813 0.007812 l -0.011718 0.007813 l -0.007813 0.007812 l -0.011719 0.007813 l -0.007812 0.007812 l -0.011719 0.007813 l -0.007812 0.003906 l -0.011719 0.007812 l -0.007812 0.003907 l -0.011719 0.007812 l -0.007813 0.003907 l -0.011718 0.007812 l -0.007813 0.003906 l -0.011719 0.007813 l -0.007812 0.003906 l -0.011719 0.007813 l -0.007813 0.003906 l -0.011718 0.007812 l -0.007813 0.003906 l -0.011719 0.003907 l -0.007812 0.003906 l -0.011719 0.003906 l -0.007812 0.003907 l -0.011719 0.003906 l -0.007812 0.003906 l -0.035157 0.011719 l -0.007812 0.003906 l -0.011719 0.003906 l -0.007812 0.003907 l -0.015626 0.003906 l -0.007812 0.003906 l -0.015625 0.003906 l -0.007813 0.003906 l -0.046874 0.015626 h -0.011719 l -0.011719 0.003906 h -0.011719 l -0.011719 0.003906 h -0.19531 l -0.015625 -0.003906 h -0.03125 l -0.015625 -0.003906 h -0.007812 l -0.015626 -0.003907 h -0.007812 l -0.015625 -0.003906 h -0.011719 l -0.011718 -0.003906 h -0.007813 l -0.015625 -0.003907 l -0.007812 -0.003906 l -0.015626 -0.003906 l -0.007812 -0.003906 l -0.015625 -0.003906 l -0.007813 -0.003907 l -0.011718 -0.003906 l -0.007813 -0.003906 l -0.015625 -0.003907 l -0.007812 -0.003906 l -0.011719 -0.003906 l -0.007813 -0.003906 l -0.011718 -0.003906 l -0.007813 -0.003907 l -0.011719 -0.007812 l -0.007812 -0.003907 l -0.011719 -0.007812 l -0.007812 -0.003906 l -0.011719 -0.007813 l -0.007812 -0.003906 l -0.011719 -0.007813 l -0.007813 -0.003906 l -0.011718 -0.007812 l -0.007813 -0.003906 l -0.011719 -0.007813 l -0.007812 -0.003906 l -0.011719 -0.007813 l -0.007813 -0.003906 l -0.011718 -0.007812 l -0.007813 -0.007813 l -0.011719 -0.007813 l -0.007812 -0.003906 l -0.011719 -0.007812 l -0.007812 -0.007813 l -0.011719 -0.007812 l -0.007812 -0.007813 l -0.011719 -0.007812 l -0.007813 -0.007813 l -0.011718 -0.007812 l -2.5391 -2.5391 v 23.16 h 9.543 z m 16.391 -64.562 c 0 -0.13672 0.027343 -0.26953 0.078124 -0.38672 c 0.019532 -0.046875 0.042969 -0.09375 0.070313 -0.13672 l 0.007813 -0.011718 l 0.007812 -0.007813 l 0.007812 -0.011719 l 0.007813 -0.007812 l 0.03125 -0.039063 l 0.007813 -0.007812 l 0.007812 -0.011719 l 0.019531 -0.019531 l 0.003907 -0.007813 l 0.0625 -0.066406 l 0.003906 -0.003906 l 0.015625 -0.011719 l 0.019531 -0.015625 l 0.003906 -0.003906 l 0.015625 -0.011719 l 0.003907 -0.003906 l 0.015624 -0.011719 l 0.058594 -0.042969 l 0.003906 -0.003906 l 0.019532 -0.011719 l 0.003906 -0.003906 l 0.019531 -0.011719 l 0.003907 -0.003906 c 0.15234 -0.09375 0.32812 -0.14453 0.51953 -0.14453 c 0.13672 0 0.26953 0.027344 0.38672 0.078125 c 0.042968 0.019531 0.089843 0.039062 0.12891 0.066406 l 0.019531 0.011719 c 2.2695 1.25 4.3477 2.125 6.2227 2.625 c 1.8359 0.48828 3.4766 0.62109 4.9219 0.39453 l 0.007813 -0.003906 l 0.019531 -0.003907 h 0.003906 l 0.019532 -0.003906 h 0.003906 l 0.019531 -0.003906 c 0.67969 -0.09375 1.168 -0.32812 1.4219 -0.62891 c 0.09375 -0.10938 0.14453 -0.22266 0.15234 -0.32812 c 0.007812 -0.10547 -0.027344 -0.22656 -0.10547 -0.35156 l -0.023437 -0.03125 c -0.28516 -0.42969 -0.94141 -0.85547 -2.0508 -1.168 l -0.023437 -0.007813 c -3.9609 -0.89453 -6.8633 -2.1758 -8.8359 -3.8438 c -2.0742 -1.7578 -3.1328 -3.9219 -3.2969 -6.4883 c -0.3125 -2.9336 0.42188 -5.2578 2.1953 -6.9727 c 1.5586 -1.5078 3.9141 -2.4844 7.0547 -2.9336 v -1.8438 c 0 -0.55078 0.44922 -1 1 -1 h 4.3594 c 0.55078 0 1 0.44922 1 1 v 1.7852 c 2.8789 0.22656 5.5469 0.95703 7.9883 2.1992 l 0.023438 0.011719 c 0.17969 0.082031 0.32422 0.21094 0.42188 0.36328 v 0.003906 c 0.12109 0.1875 0.17969 0.41016 0.16016 0.64062 l -0.003906 0.046875 l -0.007813 0.046875 c -0.011718 0.058594 -0.027343 0.11328 -0.046874 0.17188 c -0.49609 1.2695 -0.92578 2.4102 -1.2773 3.4102 c -0.35156 1 -0.64453 1.9062 -0.87109 2.707 c -0.14844 0.53125 -0.70312 0.83594 -1.2344 0.6875 c -0.066406 -0.019531 -0.12891 -0.042968 -0.1875 -0.074218 l -0.019531 -0.007813 c -1.7617 -0.75781 -3.3125 -1.293 -4.6484 -1.6016 c -1.2891 -0.29688 -2.3633 -0.37891 -3.2188 -0.24609 c -0.058594 0.007813 -0.12109 0.011719 -0.17578 0.011719 h -0.023437 c -0.96094 0.046875 -1.5898 0.30078 -1.8867 0.62891 c -0.070313 0.078125 -0.10938 0.14844 -0.11719 0.20703 c -0.003906 0.054688 0.011719 0.12109 0.054688 0.19141 l 0.023437 0.042968 c 0.20703 0.30078 0.71094 0.58594 1.5352 0.76953 l 0.12109 0.035156 l 0.023438 0.007812 c 3.8945 1.1133 6.8594 2.4766 8.8867 4.0859 c 2.1523 1.7109 3.2852 3.7031 3.3945 5.9766 l 0.003906 0.023438 l 0.003906 0.027344 c 0.23438 3.0508 -0.40234 5.3984 -2.0547 7.1758 c -1.4766 1.5859 -3.7305 2.6562 -6.8711 3.3086 v 3.0977 c 0 0.55078 -0.44922 1 -1 1 h -4.4688 c -0.55078 0 -1 -0.44922 -1 -1 v -3.0117 c -1.6133 0 -3.0859 -0.16406 -4.418 -0.49609 c -1.6367 -0.41016 -3.0703 -1.0742 -4.2891 -1.9844 l -0.074219 -0.058593 l -0.007813 -0.007813 c -0.042968 -0.039063 -0.085937 -0.078125 -0.125 -0.125 l -0.007812 -0.007813 l -0.066406 -0.09375 l -0.003906 -0.003906 c -0.10156 -0.15625 -0.16016 -0.33984 -0.16016 -0.53906 v -6.9688 z m 2 1.6562 v 4.8008 c 0.92578 0.62109 2 1.0859 3.2148 1.3867 c 1.4102 0.35156 3.0156 0.49219 4.8086 0.42188 l 0.12891 -0.007813 c 0.55078 0 1 0.44922 1 1 v 3.0273 h 2.4648 v -2.9219 l 0.007813 -0.12891 l 0.019531 -0.11719 l 0.019531 -0.070312 l 0.015625 -0.042969 v -0.003906 l 0.007813 -0.019532 v -0.003906 l 0.007812 -0.019531 v -0.003906 l 0.054688 -0.10547 v -0.003906 l 0.011718 -0.015625 v -0.003907 l 0.011719 -0.015624 v -0.003907 l 0.054687 -0.074219 l 0.003907 -0.003906 l 0.011719 -0.015625 l 0.074218 -0.074219 l 0.015625 -0.011718 l 0.003907 -0.003906 l 0.015624 -0.011719 l 0.019532 -0.019531 l 0.015625 -0.011719 l 0.058593 -0.042969 l 0.003907 -0.003906 l 0.019531 -0.011719 l 0.003906 -0.003906 l 0.039063 -0.023438 l 0.003906 -0.003906 l 0.019531 -0.007813 l 0.003906 -0.003906 l 0.042969 -0.019531 l 0.019531 -0.007813 l 0.046876 -0.015624 c 0.078124 -0.03125 0.15625 -0.050782 0.23828 -0.0625 l 0.027343 -0.003907 c 3.0938 -0.55469 5.2344 -1.4688 6.5117 -2.8438 c 1.2422 -1.3359 1.7148 -3.1914 1.5234 -5.668 l -0.003907 -0.078124 v -0.023438 c -0.082031 -1.6719 -0.96484 -3.1797 -2.6484 -4.5156 c -1.8242 -1.4492 -4.5664 -2.6992 -8.2148 -3.7383 h -0.007812 c -1.3828 -0.30469 -2.3086 -0.92969 -2.7852 -1.6523 l -0.050781 -0.074219 c -0.27734 -0.45703 -0.38672 -0.95312 -0.33594 -1.4414 c 0.050781 -0.48438 0.26172 -0.94531 0.625 -1.3398 c 0.61719 -0.67969 1.7344 -1.1953 3.2852 -1.2734 c 1.0938 -0.16406 2.4062 -0.070313 3.9414 0.28516 c 1.2031 0.27734 2.5508 0.71875 4.0469 1.3242 c 0.17188 -0.53906 0.36719 -1.1211 0.58594 -1.7461 c 0.28516 -0.82031 0.60938 -1.6914 0.96484 -2.6211 c -2.2305 -1.0078 -4.6602 -1.5664 -7.2852 -1.6758 h -0.054687 c -0.55078 0 -1 -0.44922 -1 -1 v -1.7227 h -2.3555 v 1.7227 c 0 0.53516 -0.42188 0.97266 -0.94922 1 h -0.027343 c -3.0977 0.33984 -5.332 1.1719 -6.6992 2.4922 c -1.3008 1.2539 -1.832 3.0273 -1.5938 5.3047 l 0.003906 0.027344 v 0.10547 c 0.13672 1.9922 0.96875 3.6836 2.5938 5.0625 c 1.7305 1.4648 4.3594 2.6094 7.9883 3.4258 l 0.12891 0.027343 c 1.6094 0.45703 2.6367 1.1914 3.168 1.9883 l 0.039063 0.066406 c 0.3125 0.5 0.44531 1.0234 0.41406 1.5391 c -0.03125 0.54688 -0.24609 1.0625 -0.61719 1.5 c -0.55469 0.65625 -1.4805 1.1523 -2.6836 1.3164 l -0.03125 0.003906 c -1.7266 0.26953 -3.6445 0.125 -5.7383 -0.43359 c -1.6328 -0.43359 -3.3867 -1.1211 -5.2539 -2.0547 z m 37.109 -13.293 c 0.71875 0.76172 1.4609 1.5352 2.2305 2.3164 c 1.293 1.3086 2.6523 2.6367 4.0703 3.9648 l 0.085937 0.078125 c 0.082031 0.085938 0.14844 0.18359 0.19531 0.28906 l 0.003906 0.007813 c 0.16406 0.37109 0.09375 0.82031 -0.21484 1.1172 c -3.5703 3.4922 -8.0039 7.8867 -13.281 13.164 c -5.3867 5.3828 -11.727 11.766 -19.027 19.141 l -0.019531 0.019531 l -0.011719 0.015625 l -0.003906 0.003906 l -0.015625 0.011719 l -0.015625 0.015625 l -0.007812 0.003906 l -0.011719 0.011719 l -0.007813 0.003907 l -0.015624 0.011718 l -0.003907 0.003906 l -0.015625 0.011719 l -0.007812 0.003907 l -0.015625 0.011718 l -0.007813 0.003906 l -0.015625 0.011719 l -0.003906 0.003907 l -0.039063 0.019531 l -0.003906 0.003906 l -0.20312 0.10156 h -0.007812 l -0.023438 0.011718 l -0.015625 0.003906 l -0.007812 0.003907 l -0.015625 0.003906 h -0.007813 l -0.015625 0.003906 h -0.007812 l -0.015625 0.003907 h -0.007813 l -0.019531 0.003906 h -0.007812 l -0.019532 0.003906 h -0.007812 l -0.019532 0.003906 h -0.007812 l -0.019531 0.003906 h -0.007813 l -0.015625 0.003907 h -0.21875 l -0.015625 -0.003907 h -0.007812 l -0.019532 -0.003906 h -0.007812 l -0.019531 -0.003906 h -0.007813 l -0.019531 -0.003906 h -0.007813 l -0.019531 -0.003906 h -0.007812 l -0.015625 -0.003907 h -0.007813 l -0.015625 -0.003906 h -0.007812 l -0.015625 -0.003906 l -0.007813 -0.003907 l -0.015625 -0.003906 l -0.023437 -0.011718 h -0.007813 l -0.20312 -0.10156 l -0.003906 -0.003906 l -0.039062 -0.019531 l -0.003907 -0.003907 l -0.015625 -0.011719 l -0.007812 -0.003906 l -0.015625 -0.011718 l -0.007813 -0.003907 l -0.015625 -0.011719 l -0.003906 -0.003906 l -0.015625 -0.011718 l -0.007812 -0.003907 l -0.011719 -0.011719 l -0.007813 -0.003906 l -0.015625 -0.015625 l -0.015625 -0.011719 l -0.003906 -0.003906 l -0.011719 -0.015625 l -0.019531 -0.019531 c -2.8125 -2.8281 -5.6172 -5.6367 -8.418 -8.418 c -2.5742 -2.5547 -5.1445 -5.0938 -7.7109 -7.6172 c -3.4883 3.5391 -6.9688 7.0508 -10.438 10.539 c -3.4922 3.5078 -6.9727 6.9883 -10.438 10.438 c 0.34375 0.39453 0.71094 0.79688 1.1016 1.2109 l 0.007813 0.007812 c 0.42188 0.44531 0.87109 0.89844 1.3398 1.3594 c 4.4219 -4.3477 8.0938 -7.9883 11.008 -10.902 c 3.0703 -3.0703 5.3125 -5.3516 6.7266 -6.8438 l 0.007812 -0.011719 l 0.007812 -0.007813 l 0.007813 -0.011718 l 0.027344 -0.027344 l 0.011719 -0.007813 l 0.007812 -0.007812 l 0.011719 -0.007813 l 0.007812 -0.007812 l 0.011719 -0.007813 l 0.007812 -0.007812 l 0.011719 -0.007813 l 0.007813 -0.007812 l 0.011718 -0.007813 l 0.007813 -0.007812 l 0.011719 -0.007813 l 0.007812 -0.007812 l 0.011719 -0.007813 l 0.007813 -0.007812 l 0.011718 -0.007813 l 0.007813 -0.007812 l 0.035156 -0.023438 l 0.007813 -0.007812 l 0.035156 -0.023438 l 0.011718 -0.003906 l 0.011719 -0.007812 l 0.22266 -0.074219 h 0.011718 l 0.035156 -0.011719 h 0.011719 l 0.011719 -0.003906 h 0.26953 l 0.023438 0.007812 h 0.011719 l 0.19922 0.066406 l 0.007813 0.003907 l 0.011719 0.003906 l 0.007812 0.003906 l 0.011719 0.007813 l 0.011719 0.003906 l 0.011718 0.007812 l 0.011719 0.003907 l 0.011719 0.007812 l 0.007812 0.007813 l 0.011719 0.007812 l 0.007813 0.007813 l 0.011718 0.007812 l 0.007813 0.007813 l 0.011719 0.007812 l 0.007812 0.007813 l 0.011719 0.007812 l 0.007812 0.007813 l 0.011719 0.007812 l 0.007812 0.007813 l 0.011719 0.007812 l 0.007813 0.007813 l 0.011718 0.007812 l 0.007813 0.007813 l 0.011719 0.007812 l 0.007812 0.007813 l 0.011719 0.007812 l 0.007813 0.007813 l 0.011718 0.007812 l 0.007813 0.007813 l 0.011719 0.007812 l 0.007812 0.007813 l 0.011719 0.007812 l 0.019531 0.019531 c 2.875 2.8008 5.6523 5.5391 8.3203 8.207 c 2.4492 2.4492 5.0156 5.043 7.6875 7.7812 l 35.621 -35.301 l 0.078125 -0.078124 l 0.015625 -0.011719 l 0.003906 -0.003907 l 0.015626 -0.011718 l 0.003906 -0.003906 l 0.015625 -0.011719 l 0.003906 -0.003907 l 0.015625 -0.011718 l 0.003906 -0.003906 l 0.015625 -0.011719 l 0.003907 -0.003907 l 0.015624 -0.011718 l 0.023438 -0.011719 l 0.003906 -0.003906 l 0.20312 -0.10156 h 0.007813 l 0.023437 -0.011718 l 0.015625 -0.003907 l 0.007813 -0.003906 l 0.015625 -0.003906 h 0.007812 l 0.015625 -0.003907 h 0.007813 l 0.015625 -0.003906 h 0.007812 l 0.015625 -0.003906 h 0.007813 l 0.015625 -0.003906 h 0.007812 l 0.015625 -0.003906 h 0.007813 l 0.015625 -0.003907 h 0.007812 l 0.015625 -0.003906 h 0.007813 l 0.015625 -0.003906 h 0.09375 l 0.070312 0.003906 h 0.007813 l 0.039062 0.003906 h 0.007813 l 0.0625 0.015625 l 0.007812 0.003906 l 0.015625 0.003907 l 0.007813 0.003906 l 0.015625 0.003906 l 0.007812 0.003907 l 0.046875 0.015624 l 0.015625 0.003907 l 0.078125 0.039062 l 0.0625 0.027344 l 0.003906 0.003906 l 0.0625 0.03125 l 0.003907 0.003907 l 0.039062 0.023437 l 0.003907 0.003906 l 0.015624 0.011719 l 0.003907 0.003906 l 0.015625 0.011719 l 0.003906 0.003906 l 0.015625 0.011719 l 0.003906 0.003906 l 0.015625 0.011719 l 0.003906 0.003906 l 0.015626 0.011719 l 0.003906 0.003906 c 1.7383 1.5664 3.2812 3 4.6172 4.3008 c 0.59375 0.57812 1.1484 1.1289 1.6602 1.6523 v -16.414 h -16.543 z m 4.2305 7.0703 c -1.1758 -1.1172 -2.3203 -2.2383 -3.4219 -3.3555 c -1.2891 -1.3047 -2.5391 -2.6328 -3.7578 -3.9766 c -0.20312 -0.18359 -0.32812 -0.44922 -0.32812 -0.74219 c 0 -0.55078 0.44922 -1 1 -1 h 19.82 c 0.55078 0 1 0.44922 1 1 v 19.93 c 0 0.55078 -0.44922 1 -1 1 c -0.3125 0 -0.58984 -0.14062 -0.76953 -0.36328 l -0.011719 -0.015625 l -0.003906 -0.003906 c -0.89062 -0.98828 -1.9805 -2.1094 -3.2656 -3.3555 c -1.1289 -1.0977 -2.4219 -2.3047 -3.8672 -3.6172 l -35.676 35.352 l -0.097656 0.097656 l -0.011719 0.007813 l -0.007812 0.007812 l -0.011719 0.007813 l -0.007813 0.007812 l -0.011718 0.007813 l -0.007813 0.007812 l -0.011719 0.007813 l -0.007812 0.007812 l -0.011719 0.007813 l -0.007812 0.003906 l -0.011719 0.007813 l -0.007812 0.003906 l -0.011719 0.007812 l -0.007813 0.003906 l -0.011718 0.007813 l -0.007813 0.003906 l -0.011719 0.007813 l -0.007812 0.003906 l -0.011719 0.007812 l -0.007813 0.003907 l -0.011718 0.007812 l -0.007813 0.003907 l -0.011719 0.003906 l -0.007812 0.003906 l -0.011719 0.003906 l -0.007812 0.003906 l -0.011719 0.003907 l -0.007812 0.003906 l -0.035157 0.011719 l -0.007812 0.003906 l -0.011719 0.003906 l -0.007812 0.003906 l -0.015626 0.003907 l -0.007812 0.003906 l -0.015625 0.003906 l -0.007813 0.003907 l -0.046874 0.015624 h -0.011719 l -0.011719 0.003907 h -0.011719 l -0.011719 0.003906 h -0.19531 l -0.015625 -0.003906 h -0.03125 l -0.015625 -0.003907 h -0.007812 l -0.015626 -0.003906 h -0.007812 l -0.015625 -0.003906 h -0.011719 l -0.011718 -0.003906 h -0.007813 l -0.015625 -0.003906 l -0.007812 -0.003907 l -0.015626 -0.003906 l -0.007812 -0.003906 l -0.015625 -0.003907 l -0.007813 -0.003906 l -0.011718 -0.003906 l -0.007813 -0.003906 l -0.015625 -0.003906 l -0.007812 -0.003907 l -0.011719 -0.003906 l -0.007813 -0.003906 l -0.011718 -0.003907 l -0.007813 -0.003906 l -0.011719 -0.007812 l -0.007812 -0.003906 l -0.011719 -0.007813 l -0.007812 -0.003906 l -0.011719 -0.007813 l -0.007812 -0.003906 l -0.011719 -0.007812 l -0.007813 -0.003907 l -0.011718 -0.007812 l -0.007813 -0.003907 l -0.011719 -0.007812 l -0.007812 -0.003906 l -0.011719 -0.007813 l -0.007813 -0.003906 l -0.011718 -0.007813 l -0.007813 -0.007812 l -0.011719 -0.007812 l -0.007812 -0.003907 l -0.011719 -0.007812 l -0.007812 -0.007813 l -0.011719 -0.007812 l -0.007812 -0.007813 l -0.011719 -0.007812 l -0.007813 -0.007813 l -0.011718 -0.007812 l -0.097657 -0.097656 c -2.6836 -2.75 -5.4727 -5.5742 -8.3633 -8.4688 c -2.6406 -2.6406 -5.1758 -5.1445 -7.6016 -7.5156 c -1.418 1.4727 -3.4414 3.5273 -6.0703 6.1562 c -3.0703 3.0742 -6.9688 6.9297 -11.688 11.57 l -0.070313 0.070313 l -0.011718 0.007812 l -0.007813 0.007812 l -0.03125 0.023438 l -0.007812 0.007812 l -0.011719 0.007813 l -0.007812 0.007813 l -0.011719 0.007812 l -0.007813 0.007812 l -0.011718 0.007813 l -0.007813 0.007813 l -0.011719 0.007812 l -0.007812 0.007812 l -0.011719 0.007813 l -0.007813 0.007813 l -0.011718 0.007812 l -0.007813 0.003906 l -0.011719 0.007813 l -0.007812 0.003906 l -0.011719 0.007813 l -0.007812 0.003906 l -0.011719 0.007812 l -0.03125 0.015625 l -0.015625 0.003907 l -0.007813 0.003906 l -0.015624 0.003906 l -0.007813 0.003906 l -0.011719 0.003906 l -0.007812 0.003907 l -0.015625 0.003906 l -0.007813 0.003906 l -0.015625 0.003907 l -0.007812 0.003906 l -0.015625 0.003906 l -0.007813 0.003906 l -0.015625 0.003906 l -0.007812 0.003907 l -0.015625 0.003906 l -0.007813 0.003906 l -0.015625 0.003907 h -0.007812 l -0.015625 0.003906 l -0.007813 0.003906 h -0.023437 l -0.015625 0.003906 h -0.19531 l -0.015625 -0.003906 h -0.007812 l -0.015625 -0.003906 h -0.007813 l -0.015625 -0.003906 h -0.007812 l -0.015625 -0.003907 h -0.007813 l -0.015625 -0.003906 h -0.007812 l -0.015625 -0.003906 l -0.007813 -0.003907 l -0.015625 -0.003906 l -0.007812 -0.003906 l -0.015625 -0.003906 l -0.007813 -0.003906 l -0.011718 -0.003907 l -0.007813 -0.003906 l -0.015625 -0.003906 l -0.007812 -0.003907 l -0.011719 -0.007812 l -0.03125 -0.015625 l -0.011719 -0.007813 l -0.007812 -0.003906 l -0.011719 -0.007812 l -0.007813 -0.003906 l -0.011718 -0.007813 l -0.007813 -0.003906 l -0.011719 -0.007813 l -0.007812 -0.003906 l -0.011719 -0.007812 l -0.007813 -0.003907 l -0.011718 -0.007812 l -0.007813 -0.003907 l -0.011719 -0.007812 l -0.007812 -0.007812 l -0.011719 -0.007813 l -0.007812 -0.007813 l -0.011719 -0.007812 l -0.007812 -0.007812 l -0.011719 -0.007813 l -0.007813 -0.007813 l -0.011718 -0.007812 l -0.007813 -0.007812 l -0.011719 -0.007813 l -0.007812 -0.007813 l -0.011719 -0.007812 l -0.066406 -0.066406 c -0.75 -0.71094 -1.4492 -1.4062 -2.0898 -2.082 c -0.63281 -0.66797 -1.2148 -1.3281 -1.75 -1.9766 l -0.007813 -0.007812 l -0.015624 -0.019532 l -0.027344 -0.03125 l -0.007813 -0.007812 l -0.007812 -0.015625 l -0.070313 -0.10547 l -0.003906 -0.003906 l -0.007812 -0.019532 l -0.003907 -0.003906 l -0.019531 -0.039062 l -0.003906 -0.003906 l -0.007813 -0.019532 l -0.003906 -0.003906 l -0.007813 -0.019531 l -0.003906 -0.003907 l -0.007812 -0.019531 l -0.003906 -0.003906 l -0.007813 -0.019531 v -0.003906 l -0.007813 -0.019532 l -0.015624 -0.046875 v -0.003906 l -0.003907 -0.019531 v -0.003906 l -0.003906 -0.019532 v -0.003906 l -0.003906 -0.019531 v -0.003907 l -0.003907 -0.019531 v -0.003906 l -0.003906 -0.019531 v -0.003906 l -0.003906 -0.019532 v -0.14453 l 0.003906 -0.042969 v -0.003906 l 0.003906 -0.042969 v -0.003906 l 0.007813 -0.042969 v -0.003906 l 0.015625 -0.066406 v -0.003906 l 0.007812 -0.019532 l 0.007813 -0.023437 v -0.003907 l 0.050781 -0.13281 v -0.003906 l 0.007813 -0.019532 v -0.003906 l 0.007812 -0.015625 l 0.050781 -0.089843 l 0.011719 -0.015626 l 0.003907 -0.003906 l 0.011718 -0.015625 l 0.003906 -0.007812 l 0.027344 -0.03125 l 0.003906 -0.007813 l 0.011719 -0.011718 l 0.003907 -0.007813 l 0.054687 -0.054687 c 3.6797 -3.6602 7.3711 -7.3555 11.078 -11.078 c 3.6914 -3.7109 7.4062 -7.4609 11.129 -11.238 c 0.38672 -0.39062 1.0195 -0.39844 1.4102 -0.011719 c 2.8008 2.7461 5.6133 5.5234 8.4297 8.3203 c 2.5781 2.5625 5.1641 5.1445 7.75 7.7461 c 7.0156 -7.0859 13.133 -13.242 18.352 -18.461 c 5.1055 -5.1094 9.293 -9.2617 12.555 -12.457 z" stroke-linecap="round" />
</g>
</svg>